<svg xmlns="http://www.w3.org/2000/svg" xmlns:xlink="http://www.w3.org/1999/xlink" width="2000" zoomAndPan="magnify" viewBox="0 0 1500 1499.999933" height="2000" preserveAspectRatio="xMidYMid meet" version="1.0"><defs><clipPath id="9ba3da0bda"><path d="M 314.199219 241.035156 L 1181 241.035156 L 1181 1258.785156 L 314.199219 1258.785156 Z M 314.199219 241.035156 " clip-rule="nonzero"/></clipPath></defs><rect x="-150" width="1800" fill="#ffffff" y="-149.999993" height="1799.99992" fill-opacity="1"/><rect x="-150" width="1800" fill="#005fbd" y="-149.999993" height="1799.99992" fill-opacity="1"/><g clip-path="url(#9ba3da0bda)"><path fill="#1a1a1a" d="M 440.75 1124.054688 C 441.21875 1124.523438 441.699219 1125.003906 442.167969 1125.472656 C 442.636719 1125.941406 443.117188 1126.421875 443.585938 1126.890625 C 444.054688 1127.355469 444.535156 1127.839844 445.003906 1128.304688 C 445.46875 1128.773438 445.953125 1129.253906 446.417969 1129.722656 C 446.886719 1130.191406 447.371094 1130.671875 447.835938 1131.140625 C 448.304688 1131.609375 448.785156 1132.089844 449.253906 1132.558594 C 449.722656 1133.027344 450.203125 1133.507812 450.671875 1133.976562 C 451.140625 1134.441406 451.621094 1134.925781 452.089844 1135.390625 C 452.558594 1135.859375 453.039062 1136.34375 453.507812 1136.808594 C 453.972656 1137.277344 454.457031 1137.757812 454.921875 1138.226562 C 455.390625 1138.695312 455.875 1139.175781 456.339844 1139.644531 C 456.808594 1140.113281 457.289062 1140.59375 457.757812 1141.0625 C 458.226562 1141.527344 458.707031 1142.011719 459.175781 1142.476562 C 459.644531 1142.945312 460.125 1143.429688 460.59375 1143.894531 C 461.0625 1144.363281 461.542969 1144.84375 462.011719 1145.3125 C 462.476562 1145.78125 462.960938 1146.261719 463.425781 1146.730469 C 463.894531 1147.199219 464.378906 1147.679688 464.84375 1148.148438 C 465.3125 1148.613281 465.792969 1149.097656 466.261719 1149.5625 C 466.730469 1150.03125 467.210938 1150.515625 467.679688 1150.980469 C 468.148438 1151.449219 468.628906 1151.929688 469.097656 1152.398438 C 469.5625 1152.867188 470.046875 1153.347656 470.515625 1153.816406 C 470.980469 1154.285156 471.464844 1154.765625 471.929688 1155.234375 C 472.398438 1155.699219 472.878906 1156.183594 473.347656 1156.652344 C 473.816406 1157.117188 474.296875 1157.601562 474.765625 1158.066406 C 475.234375 1158.535156 475.714844 1159.015625 476.183594 1159.484375 C 476.652344 1159.953125 477.132812 1160.433594 477.601562 1160.902344 C 478.066406 1161.371094 478.550781 1161.851562 479.019531 1162.320312 C 479.484375 1162.785156 479.96875 1163.269531 480.433594 1163.738281 C 480.902344 1164.203125 481.382812 1164.6875 481.851562 1165.152344 C 502.800781 1186.144531 525.988281 1203.816406 551.257812 1217.972656 C 599.132812 1244.816406 653.289062 1258.421875 712.191406 1258.421875 C 767.75 1258.421875 821.210938 1242.917969 871.101562 1212.359375 C 895.25 1197.566406 918.28125 1179.382812 940.011719 1157.984375 C 961.625 1173.0625 985.71875 1183.550781 1013.808594 1183.550781 C 1041.898438 1183.550781 1066.25 1173.601562 1089.4375 1153.984375 C 1104.0625 1141.613281 1118.039062 1125.445312 1134.777344 1101.535156 L 1134.875 1101.394531 C 1160.386719 1064.746094 1185.65625 1020.667969 1179.71875 971.761719 C 1176.8125 947.867188 1166.792969 925.390625 1149.941406 904.953125 C 1146.15625 900.363281 1141.976562 895.8125 1137.371094 891.261719 C 1136.902344 890.796875 1136.433594 890.3125 1135.953125 889.847656 C 1135.484375 889.378906 1135.015625 888.898438 1134.535156 888.429688 C 1134.066406 887.960938 1133.597656 887.480469 1133.117188 887.011719 C 1132.648438 886.542969 1132.183594 886.0625 1131.699219 885.59375 C 1131.234375 885.128906 1130.765625 884.644531 1130.28125 884.175781 C 1129.816406 883.710938 1129.347656 883.226562 1128.867188 882.761719 C 1128.398438 882.292969 1127.929688 881.8125 1127.449219 881.34375 C 1126.980469 880.875 1126.511719 880.394531 1126.03125 879.925781 C 1125.5625 879.457031 1125.09375 878.976562 1124.613281 878.507812 C 1124.144531 878.039062 1123.679688 877.558594 1123.195312 877.089844 C 1122.730469 876.625 1122.261719 876.140625 1121.777344 875.675781 C 1121.3125 875.207031 1120.84375 874.722656 1120.363281 874.257812 C 1119.894531 873.789062 1119.425781 873.308594 1118.945312 872.839844 C 1118.476562 872.371094 1118.007812 871.890625 1117.527344 871.421875 C 1117.058594 870.953125 1116.589844 870.472656 1116.109375 870.003906 C 1115.640625 869.539062 1115.175781 869.054688 1114.691406 868.589844 C 1114.226562 868.121094 1113.757812 867.636719 1113.273438 867.171875 C 1112.808594 866.703125 1112.339844 866.222656 1111.859375 865.753906 C 1111.390625 865.285156 1110.921875 864.804688 1110.441406 864.335938 C 1109.972656 863.867188 1109.503906 863.386719 1109.023438 862.917969 C 1108.554688 862.453125 1108.089844 861.96875 1107.605469 861.503906 C 1107.136719 861.035156 1106.671875 860.550781 1106.1875 860.085938 C 1105.722656 859.617188 1105.253906 859.136719 1104.769531 858.667969 C 1104.304688 858.199219 1103.835938 857.71875 1103.355469 857.25 C 1102.886719 856.78125 1102.417969 856.300781 1101.9375 855.832031 C 1101.46875 855.367188 1101 854.882812 1100.519531 854.414062 C 1100.433594 854.332031 1100.347656 854.246094 1100.265625 854.160156 C 1113.046875 799.257812 1119.738281 743.902344 1119.738281 691.492188 C 1119.738281 580.980469 1091.902344 485.035156 1039.234375 414.03125 C 1029.199219 400.511719 1018.359375 387.996094 1006.75 376.519531 C 1006.28125 376.050781 1005.800781 375.570312 1005.332031 375.101562 C 1004.867188 374.632812 1004.382812 374.152344 1003.917969 373.683594 C 1003.449219 373.214844 1002.964844 372.734375 1002.5 372.265625 C 1002.03125 371.800781 1001.550781 371.316406 1001.082031 370.847656 C 1000.613281 370.382812 1000.132812 369.898438 999.664062 369.433594 C 999.195312 368.964844 998.714844 368.484375 998.246094 368.015625 C 997.777344 367.546875 997.296875 367.066406 996.828125 366.597656 C 996.363281 366.128906 995.878906 365.648438 995.414062 365.179688 C 994.945312 364.710938 994.460938 364.230469 993.996094 363.761719 C 993.527344 363.296875 993.046875 362.8125 992.578125 362.347656 C 992.109375 361.878906 991.628906 361.398438 991.160156 360.929688 C 990.691406 360.460938 990.210938 359.980469 989.742188 359.511719 C 989.273438 359.042969 988.792969 358.5625 988.324219 358.09375 C 987.859375 357.625 987.375 357.144531 986.910156 356.675781 C 986.441406 356.210938 985.957031 355.726562 985.492188 355.261719 C 985.023438 354.792969 984.542969 354.308594 984.074219 353.84375 C 983.605469 353.375 983.125 352.894531 982.65625 352.425781 C 982.1875 351.957031 981.707031 351.476562 981.238281 351.007812 C 980.773438 350.539062 980.289062 350.058594 979.820312 349.589844 C 979.355469 349.125 978.871094 348.640625 978.40625 348.175781 C 977.9375 347.707031 977.453125 347.222656 976.988281 346.757812 C 976.519531 346.289062 976.039062 345.808594 975.570312 345.339844 C 975.101562 344.871094 974.621094 344.390625 974.152344 343.921875 C 973.683594 343.453125 973.203125 342.972656 972.734375 342.503906 C 972.269531 342.039062 971.785156 341.554688 971.316406 341.089844 C 970.851562 340.621094 970.367188 340.136719 969.902344 339.671875 C 969.433594 339.203125 968.953125 338.722656 968.484375 338.253906 C 968.015625 337.785156 967.535156 337.304688 967.066406 336.835938 C 966.597656 336.367188 966.117188 335.886719 965.648438 335.417969 C 904.082031 273.757812 820.703125 241.414062 721.746094 241.414062 C 656.039062 241.414062 594.78125 258.507812 539.722656 292.238281 C 490.371094 322.453125 447.398438 365.179688 411.980469 419.246094 C 349.84375 514.085938 314.199219 641.679688 314.199219 769.296875 C 314.199219 884.730469 343.199219 991.375 395.863281 1069.578125 C 409.398438 1089.6875 424.410156 1107.871094 440.75 1124.054688 Z M 440.75 1124.054688 " fill-opacity="1" fill-rule="nonzero"/></g><path fill="#ffffff" d="M 669.671875 1190.410156 C 615.179688 1190.410156 565.230469 1177.894531 521.210938 1153.222656 C 480.40625 1130.347656 445.355469 1097.410156 417.023438 1055.347656 C 367.164062 981.3125 339.710938 879.726562 339.710938 769.3125 C 339.710938 646.523438 373.824219 524.023438 433.308594 433.222656 C 466.644531 382.34375 506.925781 342.222656 553.03125 313.992188 C 604.039062 282.753906 660.800781 266.925781 721.730469 266.925781 C 830.082031 266.925781 918.085938 308.351562 976.222656 386.722656 C 1025.601562 453.289062 1051.695312 543.976562 1051.695312 648.976562 C 1051.695312 706.515625 1043.332031 767.796875 1027.402344 828 L 1044.507812 840.144531 C 1074.9375 862.039062 1106.726562 890.101562 1111.859375 932.304688 C 1116.761719 972.597656 1095.304688 1009.941406 1071.40625 1044.292969 C 1045.484375 1081.339844 1015.480469 1115.523438 971.277344 1115.523438 C 942.460938 1115.523438 917.574219 1100.472656 895.011719 1081.242188 C 870.207031 1108.378906 843.503906 1130.773438 815.230469 1148.089844 C 769.421875 1176.164062 720.441406 1190.394531 669.660156 1190.394531 Z M 745.980469 578.230469 C 698.457031 578.230469 667.703125 607.949219 650.285156 632.878906 C 626.175781 667.371094 611.777344 715.21875 611.777344 760.867188 C 611.777344 795.96875 619.898438 826.679688 634.636719 847.300781 C 648.046875 866.066406 666.46875 875.773438 690.863281 876.894531 C 682.117188 863.867188 675.511719 849.355469 673.0625 832.605469 C 668.765625 803.226562 678.0625 775.761719 693.34375 743.546875 L 693.640625 742.925781 C 705.050781 719.796875 728.804688 671.652344 778.804688 671.652344 C 790.46875 671.652344 801.523438 674.417969 811.914062 678.710938 C 811.941406 677.234375 811.957031 675.761719 811.957031 674.316406 C 811.957031 643.335938 805.605469 617.175781 794.085938 600.664062 C 787.367188 591.042969 775.0625 578.230469 745.980469 578.230469 Z M 745.980469 578.230469 " fill-opacity="1" fill-rule="nonzero"/><path fill="#005fbd" d="M 669.671875 1159.230469 C 574.757812 1159.230469 496.335938 1117.28125 442.890625 1037.929688 C 396.460938 968.984375 370.890625 873.589844 370.890625 769.3125 C 370.890625 540.886719 493.855469 298.117188 721.746094 298.117188 C 772.527344 298.117188 818.25 307.867188 857.652344 327.070312 C 894.558594 345.070312 926.035156 371.386719 951.191406 405.300781 C 996.558594 466.453125 1020.527344 550.722656 1020.527344 648.992188 C 1020.527344 710.46875 1010.492188 776.539062 991.457031 840.726562 L 1026.222656 865.429688 C 1052.488281 884.320312 1077.234375 905.917969 1080.902344 936.089844 C 1083.835938 960.265625 1073.675781 986.472656 1045.8125 1026.507812 C 1021.503906 1061.242188 999.535156 1084.371094 971.277344 1084.371094 C 950.582031 1084.371094 929.550781 1072.214844 898.695312 1042.394531 L 892.261719 1036.34375 C 828.808594 1116.828125 752.117188 1159.242188 669.644531 1159.242188 Z M 745.980469 547.050781 C 685.023438 547.050781 646.386719 584.011719 624.714844 615.019531 C 596.667969 655.140625 580.582031 708.300781 580.582031 760.867188 C 580.582031 832.082031 610.828125 908.183594 695.695312 908.183594 C 712.746094 908.183594 729.527344 902.871094 745.738281 892.367188 L 741.429688 888.160156 C 721.207031 868.078125 707.117188 850.222656 703.886719 828.097656 C 700.726562 806.472656 708.636719 783.996094 721.488281 756.910156 L 721.589844 756.714844 C 734.445312 730.636719 750.542969 702.832031 778.792969 702.832031 C 792.765625 702.832031 807.988281 709.492188 829.671875 725.09375 L 837.226562 730.480469 C 841.195312 709.777344 843.136719 691.265625 843.136719 674.316406 C 843.136719 636.050781 833.667969 547.050781 745.980469 547.050781 Z M 745.980469 547.050781 " fill-opacity="1" fill-rule="nonzero"/><path fill="#0070de" d="M 655.5 1111.042969 C 612.554688 1111.042969 573.566406 1101.394531 539.609375 1082.359375 C 507.988281 1064.632812 480.5625 1038.738281 458.097656 1005.378906 C 415.566406 942.210938 392.136719 853.847656 392.136719 756.542969 C 392.136719 646.382812 422.28125 537.1875 474.851562 456.960938 C 515.554688 394.828125 588.957031 320.78125 707.558594 320.78125 C 795.203125 320.78125 862.824219 352.027344 908.546875 413.648438 C 949.351562 468.652344 970.90625 545.621094 970.90625 636.222656 C 970.90625 697.316406 960.375 763.375 940.449219 827.277344 L 935.855469 842 L 991.527344 881.542969 C 1017.949219 900.546875 1029.9375 914.335938 1031.554688 927.601562 C 1033.28125 941.871094 1024.339844 962.195312 1002.554688 993.5 C 982.203125 1022.597656 967.746094 1036.171875 957.101562 1036.171875 C 943.808594 1036.171875 923.328125 1017.863281 909.085938 1004.085938 L 873.4375 970.554688 L 859.222656 989.875 C 818.5625 1045.144531 750.203125 1111.042969 655.484375 1111.042969 Z M 731.808594 498.867188 C 672.339844 498.867188 618.960938 528.371094 581.503906 581.957031 C 549.402344 627.890625 530.976562 688.445312 530.976562 748.109375 C 530.976562 797.699219 543.179688 840.980469 566.253906 873.277344 C 593.167969 910.949219 633.035156 930.859375 681.523438 930.859375 C 711.582031 930.859375 740.324219 919.621094 766.957031 897.441406 L 785.042969 882.390625 L 752.074219 850.09375 C 734.273438 832.421875 726.335938 820.84375 724.792969 810.226562 C 723.191406 799.285156 727.386719 784.574219 739.277344 759.503906 C 753.152344 731.417969 760.722656 725.519531 764.632812 725.519531 C 768.542969 725.519531 776.90625 728.226562 794.808594 741.109375 L 845.730469 777.460938 L 853.042969 746.738281 C 860.683594 714.664062 864.398438 686.800781 864.398438 661.589844 C 864.398438 616.453125 854.066406 577.804688 834.535156 549.816406 C 811.289062 516.511719 775.757812 498.894531 731.808594 498.894531 Z M 731.808594 498.867188 " fill-opacity="1" fill-rule="nonzero"/></svg>